# xmcd
#
# Track frame offsets:
#	150
#	11809
#	23185
#	35206
#	46373
#	61196
#	72250
#	82385
#	91818
#	106748
#	119740
#	129717
#
# Disc length: 1874 seconds
#
# Revision: 0
# Processed by: cddbd v1.5.1PL0 Copyright (c) Steve Scherf et al.
# Submitted via: dBpowerAMP V4.0
#
DISCID=aa07500c
DTITLE=Various Artist - Classic Country Christmas Volume Two
DYEAR=2003
DGENRE=Country/Christma
TTITLE0=The Little Drummer Boy - Johnny Cash
TTITLE1=Pretty Paper - Willie Nelson
TTITLE2=White Christmas - Tammy Wynette
TTITLE3=Goin' Home For Christmas - Merle Haggard
TTITLE4=A Christmas Prayer - Marty Robbins
TTITLE5=O Come All Ye Faithful - George Jones
TTITLE6=C-H-R-I-S-T-M-A-S - Eddy Arnold
TTITLE7=Carol Of The Bells - The Forester Sisters
TTITLE8=The Christmas Song (Chestnuts Roasting On An Open Fire) - Randy Travis
TTITLE9=Christmas Time's A-Comin' - Emmylou Harris
TTITLE10=Christmas Boogie - The Davis Sisters
TTITLE11=(I'm Gettin') Nuttin' For Christmas - Homer and Jethro
EXTD=
EXTT0=
EXTT1=
EXTT2=
EXTT3=
EXTT4=
EXTT5=
EXTT6=
EXTT7=
EXTT8=
EXTT9=
EXTT10=
EXTT11=
PLAYORDER=
